<svg width="32" height="32" fill="none" xmlns="http://www.w3.org/2000/svg"><rect y=".001" width="32" height="32" rx="4" fill="#103852"/><path d="M23.162 22.494h3.458l-5.014-7.323L28 9.028h-5.69L9.634 21.382 11.95 9H8.817L4 12.051v3.461l2.894-1.303-.394 1.14c-.444 2.381-.894 4.777-1.331 7.145h9.31l3.852-3.986 1.578 2.328c.363.51.85.929 1.416 1.219.566.29 1.196.443 1.837.446v-.007Zm-7.514-8.436-3.36-5.057h3.839c.54.03 1.07.166 1.553.4.485.236.915.564 1.264.965l.225.3-3.521 3.392Z" fill="#fff"/></svg>